<svg xmlns="http://www.w3.org/2000/svg" viewBox="0 0 256 256" role="img" aria-label="Periwinkle &amp; rose Attune conversation square icon"><rect width="256" height="256" rx="58" fill="#343550"/><circle cx="128" cy="62" r="19" fill="#EDAAAC"/>
<g transform="rotate(-8 90 130)"><path d="M65 87h35c16 0 27 11 27 27v23c0 17-11 28-28 28H83l-24 15v-20c-12-5-19-14-19-28v-18c0-16 10-27 25-27Z" fill="#737DC3"/><path d="M63 112h40m-40 18h26" stroke="#FFFFFF" stroke-width="7" stroke-linecap="round"/></g>
<g transform="rotate(8 167 137)"><path d="M151 97h36c16 0 27 11 27 27v18c0 14-7 23-19 28v20l-24-15h-17c-16 0-27-11-27-28v-23c0-16 9-27 24-27Z" fill="#BDC8EF"/><path d="M150 123h40m-40 18h26" stroke="#343550" stroke-width="7" stroke-linecap="round"/></g></svg>
